<svg width="9" height="10" viewBox="0 0 9 10" fill="none" xmlns="http://www.w3.org/2000/svg">
<path d="M4.25781 1.01172L3.86719 1.38281C3.76953 1.48047 3.76953 1.63672 3.86719 1.71484L6.89453 4.74219H0.234375C0.0976562 4.74219 0 4.85938 0 4.97656V5.52344C0 5.66016 0.0976562 5.75781 0.234375 5.75781H6.89453L3.86719 8.80469C3.76953 8.88281 3.76953 9.03906 3.86719 9.13672L4.25781 9.50781C4.33594 9.60547 4.49219 9.60547 4.58984 9.50781L8.67188 5.42578C8.76953 5.32812 8.76953 5.19141 8.67188 5.09375L4.58984 1.01172C4.49219 0.914062 4.33594 0.914062 4.25781 1.01172Z" fill="#BDBDBD"/>
</svg>
